# File created by Blade
# Date/Time:  Tue Sep 23 19:15:59 2014
# Frame Rate: 120.000 fps
#------------------------------------------------------
:FULLY-SPECIFIED
:DEGREES
1465
root 1.749318 33.307037 -6.284212 57.304142 -37.887857 -46.529764
Spine -30.678606 -19.916367 38.890540
Head 14.791620 -3.671182 0.257564
LeftShoulder 8.756077 42.005883 36.333734
LeftArm 83.002942 25.876334 -44.687802
LeftForeArm 6.974744 -0.000000 76.473423
LeftHand 46.187757 -0.000000 5.102360
LeftHandThumb1 -26.253704 0.000000 33.147579
RightShoulder -10.071927 -57.486469 -11.387312
RightArm 55.419387 -7.556856 64.843900
RightForeArm 35.813201 0.000000 105.669603
RightHand 8.965833 0.000000 -0.663740
RightHandThumb1 -24.326973 -0.000000 -32.862282
LeftUpLeg -35.789404 20.055823 24.145801
LeftLeg 31.098466 -0.000000 -0.000000
LeftFoot -22.619272 12.688257 -4.082373
LeftToeBase 5.185807 -0.000000 -0.000000
RightUpLeg -167.366224 -35.677736 32.696843
RightLeg 28.300322 -0.000000 -0.000000
RightFoot 37.717930 -21.323352 1.668982
RightToeBase 42.975882 -0.000000 -0.000000
1466
root 1.753495 33.317083 -6.260979 57.392479 -38.076808 -46.427545
Spine -30.862672 -19.620806 38.726963
Head 15.011391 -3.827047 0.037730
LeftShoulder 8.602380 42.196104 36.279742
LeftArm 83.075842 25.866482 -44.277801
LeftForeArm 8.553288 -0.000000 77.222056
LeftHand 45.390685 -0.000000 6.444438
LeftHandThumb1 -26.253704 0.000000 33.147579
RightShoulder -10.439324 -57.607164 -11.094307
RightArm 55.272284 -7.534868 64.760577
RightForeArm 35.552145 -0.000000 106.045969
RightHand 8.939105 -0.000000 -0.522821
RightHandThumb1 -24.326973 -0.000000 -32.862282
LeftUpLeg -35.809119 20.231340 23.852387
LeftLeg 30.935527 -0.000000 -0.000000
LeftFoot -22.517670 12.521648 -4.172784
LeftToeBase 4.948112 -0.000000 -0.000000
RightUpLeg -167.853012 -34.972360 32.726032
RightLeg 31.283411 -0.000000 -0.000000
RightFoot 38.131231 -21.288199 2.056120
RightToeBase 43.257275 -0.000000 -0.000000
1467
root 1.763684 33.326142 -6.242153 57.490135 -38.265670 -46.434313
Spine -30.916895 -19.307127 38.548453
Head 15.225260 -4.018722 -0.117237
LeftShoulder 8.330675 42.191805 36.168577
LeftArm 83.077729 26.019675 -44.041093
LeftForeArm 8.634145 -0.000000 77.684521
LeftHand 45.307917 -0.000000 6.395126
LeftHandThumb1 -26.253704 0.000000 33.147579
RightShoulder -10.735777 -57.733354 -10.849773
RightArm 55.139907 -7.431969 64.781384
RightForeArm 35.624968 0.000000 106.318292
RightHand 8.718995 -0.000000 -0.198288
RightHandThumb1 -24.326973 -0.000000 -32.862282
LeftUpLeg -35.753331 20.414005 23.635090
LeftLeg 30.762891 -0.000000 -0.000000
LeftFoot -22.500125 12.388960 -4.274511
LeftToeBase 5.164517 -0.000000 -0.000000
RightUpLeg -168.157796 -34.175406 32.750794
RightLeg 34.198976 -0.000000 -0.000000
RightFoot 38.835996 -21.169799 2.442694
RightToeBase 43.387696 -0.000000 -0.000000
1468
root 1.777529 33.333021 -6.223155 57.554290 -38.410612 -46.417534
Spine -30.951535 -18.974885 38.352247
Head 15.422298 -4.294722 -0.237188
LeftShoulder 8.262085 42.408420 36.224341
LeftArm 83.338885 25.979730 -43.713461
LeftForeArm 8.602788 -0.000000 78.021551
LeftHand 44.918293 -0.000000 6.849686
LeftHandThumb1 -26.253704 0.000000 33.147579
RightShoulder -11.099587 -57.833737 -10.566232
RightArm 55.026764 -7.336157 64.835540
RightForeArm 35.849467 -0.000000 106.431114
RightHand 8.533455 -0.000000 0.224181
RightHandThumb1 -24.326973 -0.000000 -32.862282
LeftUpLeg -35.698489 20.460710 23.463179
LeftLeg 30.589894 -0.000000 -0.000000
LeftFoot -22.448562 12.412044 -4.287672
LeftToeBase 5.052528 -0.000000 -0.000000
RightUpLeg -168.381825 -33.464810 32.806637
RightLeg 37.024708 -0.000000 -0.000000
RightFoot 39.508085 -20.762729 2.977208
RightToeBase 43.601981 -0.000000 -0.000000
1469
root 1.798832 33.336334 -6.208009 57.664348 -38.556032 -46.340385
Spine -31.079158 -18.601602 38.140433
Head 15.652132 -4.633756 -0.381951
LeftShoulder 8.031232 41.871358 36.132767
LeftArm 83.181886 26.486979 -43.595248
LeftForeArm 8.270498 -0.000000 78.084828
LeftHand 44.999822 -0.000000 6.847969
LeftHandThumb1 -26.253704 0.000000 33.147579
RightShoulder -11.406269 -57.922230 -10.371817
RightArm 54.980097 -7.320809 64.889330
RightForeArm 36.301186 -0.000000 106.369132
RightHand 8.629330 -0.000000 0.568196
RightHandThumb1 -24.326973 -0.000000 -32.862282
LeftUpLeg -35.759389 20.459363 23.227776
LeftLeg 30.390127 -0.000000 -0.000000
LeftFoot -22.418641 12.431194 -4.305495
LeftToeBase 6.393358 -0.000000 -0.000000
RightUpLeg -168.529473 -32.870181 32.813795
RightLeg 39.658777 -0.000000 -0.000000
RightFoot 40.228964 -19.603869 3.097329
RightToeBase 43.765752 -0.000000 -0.000000
1470
root 1.820722 33.338950 -6.190268 57.692140 -38.718739 -46.262531
Spine -31.148264 -18.318788 37.895970
Head 15.948680 -4.942080 -0.470496
LeftShoulder 7.927496 41.600288 36.109701
LeftArm 83.296580 26.813890 -43.233204
LeftForeArm 7.154392 -0.000000 78.029905
LeftHand 44.921995 -0.000000 7.261948
LeftHandThumb1 -26.253704 0.000000 33.147579
RightShoulder -11.568126 -57.993812 -10.257497
RightArm 55.010116 -7.306930 64.774646
RightForeArm 36.620401 -0.000000 106.226520
RightHand 8.848860 -0.000000 0.524383
RightHandThumb1 -24.326973 -0.000000 -32.862282
LeftUpLeg -35.707661 20.381427 23.017704
LeftLeg 30.174561 -0.000000 -0.000000
LeftFoot -22.347258 12.594057 -4.250045
LeftToeBase 6.669797 -0.000000 -0.000000
RightUpLeg -168.479088 -32.423179 32.709273
RightLeg 42.209252 -0.000000 -0.000000
RightFoot 40.614982 -18.300951 3.300108
RightToeBase 43.703429 -0.000000 -0.000000
1471
root 1.847827 33.340674 -6.171615 57.716069 -38.859314 -46.118413
Spine -31.289035 -18.089088 37.696140
Head 16.252089 -5.204682 -0.593347
LeftShoulder 7.893168 41.510337 36.069839
LeftArm 83.437180 26.954166 -42.881290
LeftForeArm 6.279049 0.000000 77.978909
LeftHand 45.015958 0.000000 7.402821
LeftHandThumb1 -26.253704 0.000000 33.147579
RightShoulder -11.606780 -57.986385 -10.236901
RightArm 55.006420 -7.301169 64.633893
RightForeArm 37.153585 -0.000000 106.059631
RightHand 8.901567 -0.000000 0.518318
RightHandThumb1 -24.326973 -0.000000 -32.862282
LeftUpLeg -35.735492 20.249541 22.776343
LeftLeg 29.979679 -0.000000 -0.000000
LeftFoot -22.263095 12.769521 -4.238446
LeftToeBase 6.681887 -0.000000 -0.000000
RightUpLeg -168.441664 -32.001309 32.642503
RightLeg 44.721408 -0.000000 -0.000000
RightFoot 40.659749 -17.539759 3.613534
RightToeBase 43.908505 -0.000000 -0.000000
1472
root 1.871807 33.340908 -6.152388 57.700720 -38.986837 -45.983692
Spine -31.409422 -17.954821 37.558763
Head 16.534379 -5.377359 -0.786118
LeftShoulder 7.912943 41.546688 36.034369
LeftArm 83.389261 26.971740 -42.754381
LeftForeArm 6.321552 -0.000000 78.025688
LeftHand 44.998083 -0.000000 7.529851
LeftHandThumb1 -26.253704 0.000000 33.147579
RightShoulder -11.492678 -57.927930 -10.371948
RightArm 54.953172 -7.345614 64.528645
RightForeArm 37.333963 -0.000000 105.959352
RightHand 9.063593 -0.000000 0.689168
RightHandThumb1 -24.326973 -0.000000 -32.862282
LeftUpLeg -35.718063 20.111158 22.567714
LeftLeg 29.785614 -0.000000 -0.000000
LeftFoot -22.239208 12.918280 -4.310101
LeftToeBase 6.689807 -0.000000 -0.000000
RightUpLeg -168.286233 -31.699285 32.464899
RightLeg 47.290067 -0.000000 -0.000000
RightFoot 40.744671 -17.012673 3.356959
RightToeBase 44.042957 -0.000000 -0.000000
1473
root 1.894920 33.340823 -6.134298 57.688902 -39.125565 -45.811609
Spine -31.569743 -17.831356 37.406739
Head 16.808273 -5.508805 -0.967690
LeftShoulder 7.930751 41.574950 35.949158
LeftArm 83.263597 26.961809 -42.612184
LeftForeArm 6.222304 -0.000000 78.123499
LeftHand 44.944750 -0.000000 7.736334
LeftHandThumb1 -26.253704 0.000000 33.147579
RightShoulder -11.403559 -57.866195 -10.450579
RightArm 54.858688 -7.419709 64.444353
RightForeArm 37.222752 0.000000 105.954215
RightHand 9.100152 -0.000000 0.678130
RightHandThumb1 -24.326973 -0.000000 -32.862282
LeftUpLeg -35.780232 20.034858 22.313506
LeftLeg 29.683237 -0.000000 -0.000000
LeftFoot -22.170201 12.929405 -4.340367
LeftToeBase 6.555103 -0.000000 -0.000000
RightUpLeg -168.084071 -31.551912 32.140214
RightLeg 49.922467 -0.000000 -0.000000
RightFoot 40.480713 -17.090725 3.437078
RightToeBase 44.595016 -0.000000 -0.000000
1474
root 1.913589 33.339692 -6.118506 57.675970 -39.234735 -45.715354
Spine -31.652524 -17.714673 37.297373
Head 17.006089 -5.586912 -1.146995
LeftShoulder 7.910155 41.713488 35.820927
LeftArm 83.139851 26.845461 -42.498683
LeftForeArm 6.288688 0.000000 78.264691
LeftHand 44.903432 -0.000000 7.671199
LeftHandThumb1 -26.253704 0.000000 33.147579
RightShoulder -11.359047 -57.783390 -10.499962
RightArm 54.734282 -7.493186 64.414921
RightForeArm 37.122071 -0.000000 105.999192
RightHand 8.973883 -0.000000 0.798574
RightHandThumb1 -24.326973 -0.000000 -32.862282
LeftUpLeg -35.815687 20.067501 22.119068
LeftLeg 29.641595 -0.000000 -0.000000
LeftFoot -22.206294 12.793185 -4.532342
LeftToeBase 6.538090 -0.000000 -0.000000
RightUpLeg -167.842616 -31.355094 31.838328
RightLeg 52.722291 -0.000000 -0.000000
RightFoot 40.363473 -16.655198 3.067737
RightToeBase 44.839242 -0.000000 -0.000000
1475
root 1.930355 33.335934 -6.107793 57.633855 -39.318197 -45.598595
Spine -31.702829 -17.615044 37.170686
Head 17.086067 -5.633314 -1.259171
LeftShoulder 7.832037 41.529455 35.673031
LeftArm 82.805493 26.987662 -42.475824
LeftForeArm 6.390521 -0.000000 78.430033
LeftHand 44.832762 -0.000000 7.736199
LeftHandThumb1 -26.253704 0.000000 33.147579
RightShoulder -11.455314 -57.781334 -10.419224
RightArm 54.655894 -7.554558 64.469265
RightForeArm 37.091500 -0.000000 106.083112
RightHand 8.489624 -0.000000 1.566105
RightHandThumb1 -24.326973 -0.000000 -32.862282
LeftUpLeg -35.882549 20.111410 21.928647
LeftLeg 29.663898 -0.000000 -0.000000
LeftFoot -22.255347 12.593948 -4.723225
LeftToeBase 6.390375 -0.000000 -0.000000
RightUpLeg -167.594534 -31.212389 31.508099
RightLeg 55.631729 -0.000000 -0.000000
RightFoot 40.091692 -16.129078 2.827120
RightToeBase 45.000419 -0.000000 -0.000000
1476
root 1.949361 33.330775 -6.104877 57.661944 -39.380775 -45.407496
Spine -31.855377 -17.450809 37.025492
Head 17.055413 -5.694194 -1.315861
LeftShoulder 7.798217 41.926614 35.592641
LeftArm 82.908460 26.652736 -42.217233
LeftForeArm 6.554250 -0.000000 78.651970
LeftHand 44.907574 -0.000000 7.403176
LeftHandThumb1 -26.253704 0.000000 33.147579
RightShoulder -11.783971 -57.836899 -10.143697
RightArm 54.687239 -7.697446 64.473364
RightForeArm 36.877322 0.000000 106.180207
RightHand 8.580327 -0.000000 1.418442
RightHandThumb1 -24.326973 -0.000000 -32.862282
LeftUpLeg -36.146579 20.286545 21.624100
LeftLeg 29.713044 -0.000000 -0.000000
LeftFoot -22.251952 12.247989 -4.904664
LeftToeBase 5.957845 -0.000000 -0.000000
RightUpLeg -167.519019 -31.004774 31.233495
RightLeg 58.660444 -0.000000 -0.000000
RightFoot 39.883755 -15.507218 2.603323
RightToeBase 45.252242 -0.000000 -0.000000
